<svg width="26" height="26" viewBox="0 0 26 26" fill="none" xmlns="http://www.w3.org/2000/svg">
<rect x="0.666914" y="0.666914" width="23.9595" height="24.1841" rx="2.98876" stroke="white" stroke-width="1.33383"/>
<path d="M11.4323 11.909C11.4323 11.909 13.0017 11.7914 13.0017 9.93425C13.0017 8.07724 11.7176 7.17126 10.091 7.17126H7.09695H7.009H4.73865V17.5487H7.009H7.09695H10.091C10.091 17.5487 13.3583 17.6529 13.3583 14.4858C13.3585 14.4858 13.501 11.909 11.4323 11.909ZM7.09695 9.01588H9.70575H10.0911C10.0911 9.01588 10.8188 9.01588 10.8188 10.0955C10.8188 11.1751 10.3906 11.3316 9.90554 11.3316H7.09695V9.01588ZM9.95298 15.7046H7.09695V12.9311H10.091C10.091 12.9311 11.1754 12.9171 11.1754 14.3564C11.1754 15.5565 10.3823 15.6925 9.95298 15.7046Z" fill="white"/>
<path d="M19.7473 7.78259H15.5033V9.06061H19.7473V7.78259Z" fill="white"/>
<path d="M17.7162 9.81183C13.7607 9.81183 13.7641 13.7987 13.7641 13.7987C13.7641 13.7987 13.493 17.7659 17.7164 17.7659C17.7164 17.7659 21.2362 17.9688 21.2362 15.006H19.426C19.426 15.006 19.4864 16.1223 17.7768 16.1223C17.7768 16.1223 15.9668 16.2444 15.9668 14.3162H21.2964C21.2964 14.3162 21.8795 9.81183 17.7162 9.81183ZM19.3252 12.9312H15.9464C15.9464 12.9312 16.1674 11.3316 17.7564 11.3316C19.3455 11.3314 19.3252 12.9312 19.3252 12.9312Z" fill="white"/>
</svg>
