<svg width="27" height="26" viewBox="0 0 27 26" fill="none" xmlns="http://www.w3.org/2000/svg">
<path d="M4.61523 25.5179H12.8652V16.4471H9.90115V13.4567H12.8652V9.71875C12.8652 7.6576 14.5273 5.98077 16.5703 5.98077H20.2754V8.97115H17.3113C16.4941 8.97115 15.8293 9.64185 15.8293 10.4663V13.4567H20.1416L19.6476 16.4471H15.8293V25.5179H22.4984C24.5414 25.5179 26.2035 23.8411 26.2035 21.78V3.73798C26.2035 1.67683 24.5414 0 22.4984 0H4.61523C2.57223 0 0.910156 1.67683 0.910156 3.73798V21.78C0.910156 23.8411 2.57223 25.5179 4.61523 25.5179ZM2.39219 3.73798C2.39219 2.50133 3.38947 1.49519 4.61523 1.49519H22.4984C23.7242 1.49519 24.7215 2.50133 24.7215 3.73798V21.78C24.7215 23.0166 23.7242 24.0228 22.4984 24.0228H17.3113V17.9423H20.9031L21.8911 11.9615H17.3113V10.4663H21.7574V4.48558H16.5703C13.71 4.48558 11.3832 6.83311 11.3832 9.71875V11.9615H8.41912V17.9423H11.3832V24.0228H4.61523C3.38947 24.0228 2.39219 23.0166 2.39219 21.78V3.73798Z" fill="white"/>
</svg>
