<svg width="27" height="26" viewBox="0 0 27 26" fill="none" xmlns="http://www.w3.org/2000/svg">
<rect x="1.48735" y="0.666914" width="23.9595" height="24.1841" rx="2.98876" stroke="white" stroke-width="1.33383"/>
<path d="M13.602 5.16028C9.46383 5.16028 6.10632 8.54738 6.10632 12.7225C6.10632 16.8976 9.46383 20.2847 13.602 20.2847C17.7404 20.2847 21.0977 16.8976 21.0977 12.7225C21.0977 8.54738 17.7404 5.16028 13.602 5.16028ZM13.602 17.6279C10.9174 17.6279 8.73974 15.4312 8.73974 12.7225C8.73974 10.0138 10.9174 7.81708 13.602 7.81708C16.2868 7.81708 18.4642 10.0138 18.4642 12.7225C18.4642 15.4312 16.2868 17.6279 13.602 17.6279Z" fill="white"/>
<path d="M23.1495 4.84399C23.1495 5.81259 22.3584 6.59796 21.3824 6.59796C20.4066 6.59796 19.6155 5.81259 19.6155 4.84399C19.6155 3.87517 20.4066 3.09003 21.3824 3.09003C22.3584 3.09003 23.1495 3.87517 23.1495 4.84399Z" fill="white"/>
</svg>
