<svg width="632" height="171" viewBox="0 0 632 171" fill="none" xmlns="http://www.w3.org/2000/svg">
<path fill-rule="evenodd" clip-rule="evenodd" d="M0 0.331696L44.3229 0.331696C23.8153 10.7274 8.15894 28.3116 0 49.7665L0 0.331696ZM132.087 0.331696L169.463 0.331696V70.1155L92.615 70.1155V108.712L141.789 108.712C137.379 133.043 116.982 151.622 86.992 151.622C49.3947 151.622 25.7999 120.988 25.7999 84.2713C25.7999 49.4347 49.1742 19.3536 86.992 19.3536C109.264 19.3536 126.905 28.3116 140.246 46.5593L165.384 29.0857C156.343 16.4782 145.097 6.85665 132.087 0.331696ZM169.463 124.748V170.312H132.417C151.933 160.359 163.289 143.991 169.463 124.748ZM42.0075 170.312H0L0 121.873C7.82817 142.996 22.382 160.138 42.0075 170.312Z" fill="#FEFEFE"/>
<path fill-rule="evenodd" clip-rule="evenodd" d="M631.879 52.0891L611.481 1.10598L602.661 1.10598L582.705 52.0891H592.187C596.156 41.3616 599.794 31.1871 603.764 20.5702C604.756 18.0266 605.969 14.1559 607.071 11.0593C607.953 14.1559 609.387 18.0266 610.269 20.5702C614.238 31.1871 618.097 41.5828 622.066 52.0891H631.879ZM586.233 1.10598L576.641 1.10598L565.725 31.4083C564.623 34.3943 563.3 38.0438 562.418 41.3616C561.425 38.265 560.102 34.2837 559.11 31.1871L548.305 1.10598L538.492 1.10598L557.787 52.0891H566.717L586.233 1.10598ZM528.348 26.6528C528.348 36.8273 520.851 44.79 510.707 44.79C500.784 44.79 493.067 36.4955 493.067 26.5422C493.067 16.5889 500.564 8.40508 510.707 8.40508C521.072 8.40508 528.348 16.3677 528.348 26.6528ZM537.5 26.6528C537.5 11.7229 525.702 6.10352e-05 510.707 6.10352e-05C496.154 6.10352e-05 483.915 12.1652 483.915 26.7634C483.915 41.5828 495.713 53.3056 510.597 53.3056C525.372 53.3056 537.5 41.3616 537.5 26.6528ZM468.149 15.9254C468.149 18.0266 467.597 19.7961 466.164 21.2338C464.731 22.7821 462.195 23.4456 458.115 23.4456H454.146V8.40508H458.667C461.974 8.40508 464.62 9.06864 466.164 10.6169C467.708 12.1652 468.149 13.9347 468.149 15.9254ZM479.946 52.0891L464.51 29.6388C472.228 28.5329 477.19 22.8927 477.19 15.483C477.19 11.5017 476.087 8.29449 473.331 5.41909C470.354 2.43309 465.503 1.10598 459.659 1.10598L445.326 1.10598V52.0891H454.146V29.9706H455.028L469.362 52.0891H479.946ZM439.151 52.0891L418.754 1.10598L409.934 1.10598L389.977 52.0891H399.459L402.767 43.2417L407.949 28.7541H408.059L411.036 20.5702C412.028 18.0266 413.241 14.1559 414.344 11.0593C415.226 14.1559 416.659 18.0266 417.541 20.5702L422.062 32.5142L424.928 40.2557L429.339 52.0891H439.151ZM381.598 52.0891V1.10598L372.667 1.10598V21.3444H350.947V1.10598L342.016 1.10598V52.0891H350.947V29.4176H372.667V52.0891H381.598ZM331.431 49.8772V40.6981C328.124 43.2417 323.493 44.6794 318.201 44.6794C307.616 44.6794 301.001 36.7167 301.001 26.7634C301.001 15.5936 308.278 8.51567 317.649 8.51567C322.721 8.51567 327.793 10.2852 331.101 12.7182V3.09665C327.242 1.32717 322.721 0.331838 317.649 0.331838C302.654 0.331838 291.739 11.5017 291.739 26.874C291.739 41.3616 301.993 52.8632 317.208 52.8632C322.611 52.8632 327.683 51.7573 331.431 49.8772ZM282.698 52.0891V1.10598L274.429 1.10598L274.539 22.6715C274.539 28.4223 274.649 33.7307 274.87 39.4815C272.885 36.385 270.349 32.7354 267.814 29.307L246.755 1.10598L238.596 1.10598V52.0891H246.865L246.644 27.9799C246.644 23.2245 246.534 18.5796 246.424 13.8241C248.409 16.8101 250.283 19.4643 252.378 22.4503L274.649 52.0891H282.698ZM221.175 26.6528C221.175 36.8273 213.678 44.79 203.424 44.79C193.611 44.79 185.783 36.4955 185.783 26.5422C185.783 16.5889 193.391 8.40508 203.424 8.40508C213.788 8.40508 221.175 16.3677 221.175 26.6528ZM230.327 26.6528C230.327 11.7229 218.529 6.10352e-05 203.534 6.10352e-05C188.87 6.10352e-05 176.742 12.1652 176.742 26.7634C176.742 41.5828 188.54 53.3056 203.424 53.3056C218.088 53.3056 230.327 41.3616 230.327 26.6528Z" fill="#FEFEFE"/>
<path fill-rule="evenodd" clip-rule="evenodd" d="M631.878 160.581V71.0012L617.434 71.0012L617.655 108.934C617.655 118.998 617.765 128.177 618.096 138.463C614.678 133.044 610.158 126.408 605.747 120.547L568.812 71.0012H554.478V160.581H569.032L568.701 118.114C568.591 109.819 568.481 101.635 568.15 93.3409C571.678 98.5387 574.986 103.294 578.735 108.492L617.765 160.581H631.878Z" fill="#6D5B3F"/>
<path fill-rule="evenodd" clip-rule="evenodd" d="M538.379 117.117V113.468H497.364V127.181H521.62C519.415 139.236 509.382 148.304 494.608 148.304C476.085 148.304 464.508 133.264 464.508 115.237C464.508 97.985 475.974 83.1656 494.608 83.1656C505.523 83.1656 514.233 87.5893 520.849 96.6579L533.197 88.0317C524.266 75.5347 510.705 68.8992 494.938 68.8992C468.036 68.8992 448.631 89.8011 448.631 115.569C448.631 141.89 466.823 162.46 493.836 162.46C522.061 162.46 538.379 142.111 538.379 117.117Z" fill="#6D5B3F"/>
<path fill-rule="evenodd" clip-rule="evenodd" d="M432.535 160.581V71.0012H416.879V160.581H432.535Z" fill="#6D5B3F"/>
<path fill-rule="evenodd" clip-rule="evenodd" d="M400.783 135.033C400.783 106.942 363.296 111.034 363.296 93.5607C363.296 87.0358 368.037 82.1697 374.763 82.1697C380.606 82.1697 385.788 85.7087 388.876 91.4595L399.46 82.1697C394.168 73.9859 385.237 69.0092 374.542 69.0092C359.658 69.0092 347.53 79.8473 347.53 94.3349C347.53 122.757 384.796 118.665 384.796 136.692C384.796 143.659 379.724 149.078 372.006 149.078C364.068 149.078 358.445 143.548 355.027 137.576L343.891 147.309C349.404 156.377 358.886 162.46 371.345 162.46C387.993 162.46 400.783 151.401 400.783 135.033Z" fill="#6D5B3F"/>
<path fill-rule="evenodd" clip-rule="evenodd" d="M327.789 160.581V146.315H265.384V160.581H327.789ZM265.384 121.542H325.584V107.497H265.384V121.542ZM265.384 85.2676H327.569V71.0012H265.384V85.2676Z" fill="#6D5B3F"/>
<path fill-rule="evenodd" clip-rule="evenodd" d="M249.29 115.128C249.29 101.414 244.99 91.0184 236.941 82.9452C228.782 74.872 216.875 71.0012 202.652 71.0012H179.057V83.7193C193.5 83.9405 214.008 81.5075 224.593 92.0138C229.885 97.4328 232.862 105.838 232.862 115.681C232.862 126.629 229.775 134.592 224.482 139.79C219.411 144.766 211.913 147.421 200.998 147.421L179.057 147.199V160.581H200.447C216.434 160.581 228.231 156.6 236.721 148.084C244.99 139.79 249.29 128.62 249.29 115.128Z" fill="#6D5B3F"/>
</svg>
