<svg width="27" height="26" viewBox="0 0 27 26" fill="none" xmlns="http://www.w3.org/2000/svg">
<rect x="1.39763" y="0.666914" width="23.9595" height="24.1841" rx="2.98876" stroke="white" stroke-width="1.33383"/>
<path d="M10.0645 15.0419L11.717 14.3179L11.2533 14.7868C11.1047 14.9367 11.0215 15.1398 11.0215 15.3503V18.4709C11.0215 19.1854 11.8772 19.532 12.3704 19.0344L14.0293 17.3609L17.6441 19.1844C18.112 19.4204 18.678 19.1408 18.7749 18.6134L20.8374 7.17176C20.946 6.55614 20.3452 6.05854 19.7709 6.28608L6.36959 11.5779C5.76887 11.8139 5.68878 12.6432 6.23259 12.9931L9.3247 14.9835C9.54602 15.1259 9.8253 15.1483 10.0645 15.0419ZM19.0289 8.29349L17.4091 17.2833L14.2263 15.6788C13.9186 15.5236 13.5519 15.5884 13.3147 15.8287L12.6023 16.5475V15.6831L15.7714 12.4859C16.3858 11.866 15.6944 10.8432 14.8977 11.1908L9.82108 13.413L8.39412 12.4944L19.0289 8.29349Z" fill="white"/>
</svg>
